<svg width="8" height="11" viewBox="0 0 8 11" fill="none" xmlns="http://www.w3.org/2000/svg">
<path d="M3.15334 0.213112L0.155844 3.63874C-0.197906 4.04311 0.0895942 4.67561 0.626469 4.67561H6.62147C6.74162 4.67571 6.85926 4.64118 6.96029 4.57615C7.06132 4.51112 7.14146 4.41834 7.19112 4.30893C7.24078 4.19952 7.25785 4.07811 7.24029 3.95925C7.22273 3.84039 7.17127 3.72911 7.09209 3.63874L4.09459 0.213737C4.03593 0.146606 3.96358 0.0928023 3.88241 0.0559375C3.80124 0.0190726 3.71312 0 3.62397 0C3.53482 0 3.4467 0.0190726 3.36553 0.0559375C3.28435 0.0928023 3.21201 0.146606 3.15334 0.213737V0.213112Z" fill="#646C7A"/>
<path d="M3.04587 10.7721L0.150532 7.10814C-0.19116 6.67705 0.0865405 6 0.605117 6H6.39578C6.51184 5.99989 6.62547 6.03682 6.72306 6.10636C6.82064 6.17591 6.89806 6.27512 6.94602 6.39212C6.99399 6.50912 7.01048 6.63895 6.99352 6.76606C6.97655 6.89317 6.92685 7.01217 6.85037 7.10881L3.95503 10.7714C3.89837 10.8432 3.82849 10.9008 3.75009 10.9402C3.67168 10.9796 3.58656 11 3.50045 11C3.41434 11 3.32922 10.9796 3.25082 10.9402C3.17241 10.9008 3.10253 10.8432 3.04587 10.7714V10.7721Z" fill="#646C7A"/>
</svg>
